<?xml version="1.0" encoding="utf-8"?>
<!-- Generator: Adobe Illustrator 16.0.0, SVG Export Plug-In . SVG Version: 6.00 Build 0)  -->
<!DOCTYPE svg PUBLIC "-//W3C//DTD SVG 1.1//EN" "http://www.w3.org/Graphics/SVG/1.1/DTD/svg11.dtd">
<svg version="1.1" id="Layer_1" xmlns="http://www.w3.org/2000/svg" xmlns:xlink="http://www.w3.org/1999/xlink" x="0px" y="0px"
	 width="320px" height="320px" viewBox="0 0 320 320" enable-background="new 0 0 320 320" xml:space="preserve">
<g>
	<g>
		<path d="M129.569,214.381c0-1.406-0.104-2.837,0.021-4.24c0.183-1.918,0.717-3.729,2.084-5.211
			c0.578-0.639,1.351-0.842,2.004-0.945c1.588-0.244,3.197-0.031,4.739,0.5c3.076,1.035,6.108,2.137,9.062,3.502
			c1.544,0.723,3.086,1.465,4.557,2.354c0.768,0.452,0.857,0.373,1.145-0.478c0.566-1.747,2.709-3.325,4.536-3.353
			c0.615-0.003,1.229,0.039,1.845-0.003c1.268-0.101,2.262,0.487,3.153,1.268c0.751,0.653,1.559,1.301,1.725,2.425
			c0.036,0.172,0.228,0.448,0.653,0.135c0.767-0.599,1.625-1.094,2.531-1.435c0.959-0.371,1.882-0.81,2.802-1.262
			c2.624-1.343,5.442-2.326,8.28-3.147c1.748-0.507,3.594-0.988,5.539-0.24c0.934,0.371,1.542,1.021,2.022,1.685
			c0.455,0.646,0.722,1.525,0.919,2.39c0.38,1.745,0.25,3.463,0.287,5.204c0.031,1.777,0.172,3.587-0.041,5.339
			c-0.199,1.569-0.342,3.177-1.376,4.586c-0.71,0.96-1.632,1.369-2.591,1.465c-1.816,0.147-3.602-0.067-5.438-0.606
			c-1.815-0.519-3.559-1.203-5.276-1.929c-0.531-0.229-1.045-0.473-1.589-0.639c-1.282-0.373-2.312-1.236-3.54-1.688
			c-1.188-0.438-2.189-1.228-3.322-1.742c-0.479-0.205-0.973-0.435-1.348-0.754c-0.584-0.537-1.076-0.504-1.524,0.075
			c-0.533,0.688-1.336,0.947-2.067,1.271c-0.365,0.168-0.958,0.161-1.336-0.015c-0.725-0.336-1.389-0.817-2.04-1.293
			c-0.255-0.175-0.358-0.677-0.596-0.718c-0.278-0.043-0.649,0.172-0.929,0.347c-0.494,0.33-0.917,0.773-1.433,1.022
			c-1.92,0.996-3.77,2.147-5.765,2.981c-2.345,1.019-4.644,2.179-7.104,2.858c-1.852,0.494-3.729,1.025-5.731,0.9
			c-1.799-0.079-2.939-0.765-3.801-2.395c-0.697-1.274-0.856-2.635-1.023-3.977C129.436,217.223,129.569,215.811,129.569,214.381z"
			/>
		<g>
			<path fill="#1A1A1A" d="M161.085,120.038c-21.756-5.859-34.819-24.635-52.442-28.071c-5.954-1.153-37.103,0-36.301,17.141
				c0.803,17.145,19.825,27.855,43.39,27.855c1.833,0,3.629-0.205,5.438-0.364c4.484-0.421,8.884-1.294,13.19-2.577
				c4.106-1.22,8.146-2.721,12.098-4.534c5.63-2.585,11.105-5.668,16.478-8.983l0.751-0.467H161.085z"/>
			<path d="M217.203,118.93c-4.967,0-50.049,1.108-55.678,1.108c-5.643,0-50.727-1.108-55.688-1.108
				c2.979-14.287,7.619-80.11-3.32-109.399c13.995-3.82,48.402-4.106,58.672-4.106c10.271,0,45.023,0.287,59,4.106
				C209.26,38.82,214.227,104.643,217.203,118.93z"/>
			<path fill="#999999" d="M105.837,118.93c4.964,0,50.047,1.108,55.681,1.108c5.641,0,50.721-1.108,55.688-1.108
				c-0.748-3.58-1.613-10.419-2.329-19.098H108.118C107.433,108.511,106.578,115.35,105.837,118.93z"/>
			<path fill="#4D4D4D" d="M228.223,87.685c-21.005,0-42.058,18.494-65.29,32.82c-5.371,3.314-10.848,6.397-16.478,8.983
				c-3.952,1.813-7.989,3.314-12.098,4.534c8.952-2.208,19.162-5.409,29.293-8.716l10.54-2.565
				c14.231,2.468,28.668,3.598,41.983,3.598c14.991,0,28.57-9.995,28.57-22.138C244.746,97.776,242.944,87.685,228.223,87.685z"/>
			<g>
				<path d="M115.731,136.963c0,0,0.41-0.029,1.18-0.084c0.766-0.073,1.885-0.186,3.3-0.418c2.831-0.437,6.824-1.334,11.535-2.696
					c9.435-2.697,21.707-7.269,33.938-12.025c12.251-4.744,24.449-9.631,34.118-12.706c4.856-1.533,9.037-2.631,12.662-2.941
					c1.829-0.133,3.621-0.075,5.36,0.502c0.384,0.109,0.854,0.33,1.221,0.517c0.182,0.098,0.35,0.188,0.503,0.27
					c0.178,0.116,0.336,0.227,0.476,0.329c0.559,0.412,0.814,0.658,0.814,0.658c2.184,2.137,2.223,5.64,0.086,7.824
					c-2.137,2.185-5.64,2.223-7.824,0.086c0,0,0.096,0.12,0.34,0.286c0.062,0.041,0.133,0.083,0.213,0.123
					c0.042,0.029,0.091,0.058,0.146,0.085c0.103,0.056,0.282,0.099,0.292,0.106c0.293,0.045-0.189-0.175-1.229-0.203
					c-1.047-0.036-2.578,0.063-4.397,0.3c-1.823,0.232-3.955,0.614-6.294,1.091c-9.391,1.921-22.064,5.493-34.757,8.931
					c-12.7,3.454-25.509,6.744-35.275,8.453c-4.88,0.868-8.99,1.347-11.875,1.484c-1.44,0.083-2.577,0.078-3.348,0.07
					C116.142,136.977,115.731,136.963,115.731,136.963z"/>
			</g>
			<path fill="#F7931E" d="M220.523,126.031c-1.377-5.168-3.427-10.063-6.049-14.597c-7.705-0.802-29.055,6.758-50.822,13.862v0.01
				c-1.179,0.38-2.357,0.759-3.526,1.147c-0.254,0.074-0.507,0.157-0.752,0.24c-0.977,0.311-1.946,0.622-2.909,0.928
				c-0.462,0.15-0.922,0.291-1.383,0.441c-0.807,0.255-1.606,0.501-2.398,0.754c-0.575,0.174-1.14,0.345-1.704,0.518
				c-0.708,0.221-1.425,0.442-2.129,0.661c-0.608,0.177-1.209,0.358-1.808,0.534c-0.667,0.202-1.335,0.397-1.99,0.595
				c-0.626,0.176-1.227,0.347-1.831,0.52c-0.643,0.186-1.28,0.373-1.912,0.546c-0.464,0.133-0.922,0.253-1.385,0.376
				c-1.438,0.394-2.841,0.767-4.226,1.114c-0.445,0.116-0.904,0.237-1.34,0.342c-4.309,1.283-8.706,2.156-13.19,2.577
				c-0.011,0-0.012,0-0.015,0c-1.966,0.239-3.78,0.364-5.424,0.364c-5.387,0-10.525-0.565-15.276-1.63
				c-0.229,2.158-0.358,4.35-0.358,6.574c0,33.835,27.427,61.253,61.253,61.253c33.828,0,61.263-27.418,61.263-61.253
				C222.609,136.415,221.885,131.095,220.523,126.031z"/>
			<g>
				<path fill="#F7931E" stroke="#000000" stroke-width="4.836" stroke-miterlimit="10" d="M208.373,141.598
					c0,8.91-7.223,16.12-16.121,16.12c-8.896,0-16.115-7.21-16.115-16.12c0-8.899,7.219-16.118,16.115-16.118
					C201.152,125.479,208.373,132.698,208.373,141.598z"/>
				
					<line fill="none" stroke="#000000" stroke-width="4.836" stroke-linecap="round" stroke-linejoin="round" stroke-miterlimit="10" x1="208.373" y1="141.598" x2="208.373" y2="207.805"/>
				
					<path fill="none" stroke="#FFFFFF" stroke-width="3.1434" stroke-linecap="round" stroke-linejoin="round" stroke-miterlimit="10" d="
					M181.78,141.598c0-5.783,4.688-10.473,10.474-10.473"/>
			</g>
			<path fill="none" stroke="#B3B3B3" stroke-width="4.4595" stroke-linecap="round" stroke-miterlimit="10" d="M114.445,91.857
				c1.606-24.074,1.644-59.929-5.478-78.991"/>
		</g>
		<g>
			<path d="M232.087,122.385c0,0,1.265,1.44,3.636,4.14c2.329,2.737,5.711,6.789,9.673,12.211
				c3.961,5.418,8.483,12.235,12.821,20.543c2.146,4.163,4.24,8.698,6.083,13.627c1.825,4.932,3.463,10.251,4.438,15.966
				c0.521,2.851,0.826,5.801,0.988,8.817c0.092,3.021,0.026,6.111-0.38,9.232c-0.854,6.204-2.926,12.624-6.937,18.079
				c-0.46,0.708-1.022,1.342-1.56,2c-0.283,0.338-0.509,0.631-0.841,1.008l-0.875,0.894c-0.598,0.59-1.142,1.209-1.789,1.777
				c-0.664,0.561-1.33,1.12-1.999,1.686c-0.65,0.597-1.404,1.016-2.104,1.533c-0.717,0.496-1.42,1.014-2.193,1.42
				c-0.759,0.432-1.521,0.865-2.283,1.301c-0.794,0.37-1.592,0.742-2.391,1.115c-0.791,0.395-1.617,0.705-2.45,1.005
				c-0.834,0.297-1.655,0.644-2.506,0.899c-1.709,0.484-3.412,1.041-5.176,1.368c-3.494,0.823-7.101,1.196-10.727,1.474
				c-14.562,0.76-29.534-2.058-43.938-6.799c-14.437-4.767-28.447-11.434-41.652-19.387c-6.6-3.986-12.99-8.312-19.158-12.884
				c-3.104-2.271-6.089-4.646-9.086-7.054c-1.462-1.213-2.922-2.426-4.379-3.635c-1.438-1.257-2.872-2.513-4.304-3.766
				c-11.312-10.126-21.555-21.104-30.242-32.696c-8.659-11.6-15.792-23.826-20.565-36.313c-2.384-6.237-4.142-12.552-5.064-18.819
				c-0.931-6.259-1.021-12.482-0.05-18.356c0.948-5.875,3.16-11.327,6.213-15.867c0.712-1.174,1.602-2.196,2.438-3.233l0.629-0.773
				c0.018-0.023,0.143-0.157,0.127-0.14l0.083-0.084l0.167-0.168l0.333-0.336c0.442-0.448,0.883-0.892,1.317-1.333
				c0.948-0.861,1.961-1.745,2.947-2.522c0.508-0.368,1.012-0.733,1.512-1.096l0.748-0.54l0.778-0.479
				c4.104-2.604,8.379-4.211,12.361-5.319c4.01-1.066,7.772-1.611,11.168-1.828c6.804-0.463,12.116,0.083,15.688,0.592
				c1.793,0.201,3.146,0.517,4.063,0.668c0.915,0.168,1.389,0.255,1.389,0.255s-0.48-0.02-1.41-0.059
				c-0.931-0.021-2.304-0.133-4.101-0.138c-3.576-0.067-8.854-0.119-15.406,0.806c-3.277,0.419-6.868,1.14-10.621,2.339
				c-3.766,1.155-7.675,2.873-11.448,5.305l-0.716,0.449l-0.685,0.507c-0.457,0.338-0.917,0.68-1.382,1.021
				c-0.893,0.725-1.723,1.459-2.604,2.271c-0.433,0.446-0.866,0.895-1.303,1.348l-0.607,0.632l-0.574,0.707
				c-0.766,0.947-1.587,1.875-2.234,2.948c-2.796,4.141-4.853,9.122-5.754,14.603c-1.84,10.995,0.254,23.449,4.863,35.555
				c4.608,12.16,11.57,24.189,20.067,35.633c8.522,11.438,18.612,22.313,29.76,32.346c11.198,10.04,23.43,19.169,36.441,27.146
				c12.988,7.969,26.787,14.669,40.985,19.483c14.17,4.797,28.885,7.67,43.099,7.043c3.532-0.24,7.047-0.574,10.437-1.347
				c1.715-0.304,3.36-0.83,5.02-1.282c0.821-0.24,1.612-0.568,2.421-0.85c0.806-0.281,1.604-0.574,2.364-0.948
				c0.771-0.352,1.54-0.7,2.309-1.052c0.732-0.411,1.467-0.821,2.197-1.229c0.747-0.383,1.422-0.873,2.107-1.342
				c0.668-0.486,1.413-0.894,2.014-1.439c0.631-0.521,1.259-1.037,1.884-1.555c0.62-0.531,1.189-1.17,1.787-1.746l0.883-0.886
				l0.758-0.901c0.515-0.625,1.059-1.225,1.502-1.896c3.881-5.167,5.972-11.293,6.882-17.311c0.437-3.025,0.539-6.041,0.489-8.998
				c-0.121-2.957-0.382-5.858-0.856-8.672c-0.886-5.643-2.435-10.926-4.18-15.838c-1.762-4.912-3.782-9.446-5.862-13.617
				c-4.202-8.324-8.634-15.171-12.477-20.656c-3.856-5.481-7.162-9.59-9.44-12.366C233.325,123.848,232.087,122.385,232.087,122.385
				z"/>
		</g>
		<g>
			<path fill="#F7931E" d="M77.315,59.354c0,8.112-6.58,14.695-14.691,14.695c-8.112,0-14.694-6.583-14.694-14.695
				c0-8.113,6.582-14.696,14.694-14.696C70.735,44.658,77.315,51.241,77.315,59.354z"/>
			<path fill="#FFFFFF" d="M64.214,53.908c0,3.115-2.521,5.635-5.634,5.635c-3.114,0-5.646-2.52-5.646-5.635
				c0-3.124,2.531-5.644,5.646-5.644C61.695,48.264,64.214,50.784,64.214,53.908z"/>
		</g>
		<g>
			<path fill="#F7931E" d="M274.172,227.385c0,8.111-6.592,14.686-14.705,14.686s-14.688-6.572-14.688-14.686
				c0-8.111,6.572-14.688,14.688-14.688S274.172,219.271,274.172,227.385z"/>
			<path fill="#FFFFFF" d="M261.069,221.939c0,3.115-2.528,5.645-5.644,5.645s-5.646-2.527-5.646-5.645
				c0-3.115,2.528-5.646,5.646-5.646C258.539,216.295,261.069,218.824,261.069,221.939z"/>
		</g>
		<path d="M158.535,171.908c-1.331,1.333-2.002,3.426-3.315,4.836c-1.436,1.568-3.41,2.908-5.15,4.104
			c-2.925,2.018-7.953,3.553-11.501,3.322c-4.056,0.236-8.502-1.604-11.562-4.186c-2.399-2.053-7.156-6.494-7.156-9.846
			c1.374,0.568,2.642,1.807,3.951,2.564c1.956,1.162,3.802,1.396,6.005,1.771c4.216,0.715,8.099-3.004,10.662-5.828
			c2.375-2.615,4.6-5.734,7.821-7.381c1.81-0.918,3.845-1.417,5.812-0.694c1.166,0.444,3.39,2.668,4.436,2.631
			c0.961,0.032,2.479-1.81,3.428-2.222c2.049-0.878,3.88-0.945,5.953-0.107c3.677,1.509,6.104,4.929,8.679,7.773
			c2.487,2.726,5.804,5.899,9.782,5.897c1.883,0,4.311-0.372,5.953-1.295c1.605-0.901,3.207-2.405,4.895-3.115
			c0,3.353-4.76,7.794-7.158,9.847c-3.073,2.582-7.497,4.422-11.561,4.187c-3.557,0.229-8.588-1.308-11.502-3.321
			c-1.742-1.195-3.727-2.535-5.15-4.104C160.539,175.334,159.867,173.241,158.535,171.908
			C157.891,172.537,159.172,172.537,158.535,171.908z"/>
	</g>
	<g>
		<path d="M25.164,265.498c0-1.357,0.479-2.52,1.442-3.48c0.962-0.963,2.122-1.442,3.48-1.442c1.356,0,2.52,0.479,3.479,1.442
			c0.964,0.961,1.444,2.123,1.444,3.48s-0.48,2.52-1.444,3.48c-0.962,0.963-2.123,1.443-3.479,1.443c-1.358,0-2.521-0.48-3.48-1.443
			C25.646,268.018,25.164,266.855,25.164,265.498z M25.844,274.158h8.491v27.512h-8.491V274.158z"/>
		<path d="M56.015,282.254c-1.245-1.547-2.887-2.32-4.925-2.32c-0.717,0-1.415,0.17-2.095,0.51
			c-0.681,0.341-1.021,0.926-1.021,1.756c0,0.68,0.351,1.18,1.048,1.5c0.697,0.318,1.584,0.604,2.66,0.85
			c1.076,0.245,2.229,0.512,3.453,0.792c1.226,0.283,2.378,0.729,3.452,1.331c1.076,0.604,1.962,1.424,2.661,2.461
			c0.696,1.039,1.047,2.428,1.047,4.161c0,1.772-0.387,3.236-1.159,4.39c-0.774,1.148-1.766,2.073-2.973,2.771
			c-1.208,0.697-2.567,1.188-4.075,1.471c-1.51,0.283-3.001,0.428-4.473,0.428c-1.927,0-3.868-0.275-5.83-0.822
			c-1.964-0.545-3.623-1.52-4.981-2.914l5.151-5.719c0.792,0.98,1.67,1.728,2.632,2.235c0.962,0.511,2.085,0.767,3.368,0.767
			c0.979,0,1.868-0.145,2.66-0.426c0.793-0.283,1.188-0.803,1.188-1.558c0-0.716-0.35-1.255-1.047-1.612
			c-0.699-0.357-1.586-0.66-2.661-0.906c-1.075-0.244-2.227-0.508-3.453-0.791c-1.226-0.283-2.377-0.707-3.453-1.273
			c-1.073-0.566-1.963-1.367-2.659-2.406c-0.698-1.037-1.049-2.425-1.049-4.16c0-1.623,0.33-3.02,0.991-4.188
			c0.659-1.169,1.528-2.131,2.604-2.889c1.072-0.754,2.311-1.311,3.707-1.67c1.396-0.356,2.811-0.537,4.243-0.537
			c1.812,0,3.644,0.266,5.491,0.791c1.851,0.529,3.415,1.475,4.698,2.83L56.015,282.254z"/>
		<path d="M65.638,287.914c0-2.188,0.396-4.169,1.188-5.943c0.793-1.771,1.877-3.293,3.255-4.557s3.001-2.236,4.869-2.916
			c1.865-0.68,3.855-1.018,5.972-1.018c2.112,0,4.104,0.338,5.972,1.018s3.49,1.652,4.868,2.916
			c1.377,1.264,2.463,2.783,3.255,4.557c0.793,1.774,1.188,3.756,1.188,5.943c0,2.189-0.396,4.171-1.188,5.943
			c-0.792,1.773-1.878,3.293-3.255,4.558c-1.378,1.265-3,2.235-4.868,2.915s-3.857,1.02-5.972,1.02s-4.104-0.34-5.972-1.02
			c-1.868-0.68-3.491-1.65-4.869-2.915s-2.462-2.782-3.255-4.558C66.034,292.085,65.638,290.104,65.638,287.914z M74.129,287.914
			c0,2.076,0.594,3.756,1.783,5.039c1.188,1.283,2.856,1.924,5.01,1.924s3.821-0.641,5.009-1.924
			c1.189-1.283,1.784-2.963,1.784-5.039c0-2.074-0.595-3.754-1.784-5.037c-1.188-1.283-2.855-1.926-5.009-1.926
			s-3.821,0.643-5.01,1.926C74.723,284.16,74.129,285.84,74.129,287.914z"/>
		<path d="M119.923,280.951h-7.473v9.17c0,0.756,0.035,1.443,0.112,2.066c0.074,0.623,0.245,1.162,0.509,1.612
			c0.266,0.452,0.672,0.804,1.22,1.05c0.546,0.243,1.271,0.365,2.179,0.365c0.453,0,1.048-0.047,1.783-0.143
			c0.733-0.094,1.292-0.312,1.67-0.65v7.076c-0.943,0.34-1.925,0.564-2.943,0.68c-1.02,0.113-2.02,0.172-3,0.172
			c-1.435,0-2.756-0.151-3.963-0.453c-1.208-0.303-2.264-0.783-3.17-1.443c-0.905-0.66-1.613-1.52-2.123-2.576
			c-0.509-1.056-0.764-2.34-0.764-3.85v-13.076h-5.437v-6.793h5.437v-8.15h8.49v8.15h7.473V280.951z"/>
		<path d="M123.206,287.914c0-2.188,0.396-4.169,1.188-5.943c0.793-1.771,1.877-3.293,3.255-4.557
			c1.377-1.264,3.001-2.236,4.868-2.916c1.868-0.68,3.858-1.018,5.972-1.018c2.114,0,4.104,0.338,5.975,1.018
			c1.868,0.68,3.49,1.652,4.868,2.916c1.377,1.264,2.462,2.783,3.255,4.557c0.793,1.774,1.188,3.756,1.188,5.943
			c0,2.189-0.396,4.171-1.188,5.943c-0.793,1.773-1.878,3.293-3.255,4.558c-1.378,1.265-3,2.235-4.868,2.915s-3.859,1.02-5.975,1.02
			c-2.112,0-4.104-0.34-5.972-1.02c-1.867-0.68-3.491-1.65-4.868-2.915c-1.378-1.265-2.462-2.782-3.255-4.558
			C123.603,292.085,123.206,290.104,123.206,287.914z M131.697,287.914c0,2.076,0.596,3.756,1.783,5.039
			c1.188,1.283,2.858,1.924,5.009,1.924c2.152,0,3.821-0.641,5.012-1.924c1.188-1.283,1.784-2.963,1.784-5.039
			c0-2.074-0.597-3.754-1.784-5.037c-1.188-1.283-2.857-1.926-5.012-1.926c-2.148,0-3.818,0.643-5.009,1.926
			C132.291,284.16,131.697,285.84,131.697,287.914z"/>
		<path d="M159.546,274.158h7.812v3.623h0.113c0.339-0.489,0.782-0.99,1.331-1.5c0.546-0.51,1.188-0.971,1.924-1.387
			c0.736-0.414,1.537-0.754,2.406-1.021c0.867-0.264,1.793-0.396,2.771-0.396c2.039,0,3.889,0.352,5.549,1.047
			c1.658,0.699,3.086,1.682,4.273,2.943c1.188,1.266,2.104,2.766,2.744,4.5c0.642,1.736,0.963,3.643,0.963,5.717
			c0,1.926-0.293,3.767-0.877,5.521c-0.586,1.756-1.416,3.312-2.491,4.67c-1.076,1.357-2.388,2.443-3.934,3.256
			c-1.548,0.812-3.304,1.219-5.266,1.219c-1.773,0-3.427-0.275-4.953-0.822c-1.528-0.545-2.782-1.479-3.766-2.801h-0.112v15.85
			h-8.491v-40.418H159.546L159.546,274.158z M167.358,287.914c0,2.076,0.597,3.756,1.783,5.039c1.188,1.283,2.858,1.924,5.009,1.924
			c2.152,0,3.822-0.641,5.013-1.924c1.188-1.283,1.782-2.963,1.782-5.039c0-2.074-0.596-3.754-1.782-5.037
			c-1.188-1.283-2.858-1.926-5.013-1.926c-2.148,0-3.818,0.643-5.009,1.926C167.952,284.16,167.358,285.84,167.358,287.914z"/>
		<path d="M220.456,296.915c-1.358,1.735-3.077,3.076-5.151,4.019c-2.076,0.943-4.228,1.416-6.453,1.416
			c-2.114,0-4.104-0.34-5.973-1.02c-1.867-0.68-3.491-1.65-4.867-2.915c-1.379-1.265-2.463-2.782-3.256-4.558
			c-0.793-1.772-1.188-3.754-1.188-5.943c0-2.188,0.396-4.169,1.188-5.943c0.793-1.771,1.877-3.293,3.256-4.557
			c1.376-1.264,3-2.236,4.867-2.916c1.869-0.68,3.856-1.018,5.973-1.018c1.961,0,3.744,0.338,5.351,1.018
			c1.604,0.68,2.962,1.652,4.073,2.916c1.113,1.264,1.975,2.783,2.576,4.557c0.604,1.774,0.906,3.756,0.906,5.943v2.661h-19.699
			c0.34,1.622,1.076,2.915,2.207,3.878c1.133,0.962,2.528,1.443,4.189,1.443c1.396,0,2.574-0.312,3.538-0.936
			c0.962-0.623,1.802-1.425,2.519-2.404L220.456,296.915z M213.267,284.801c0.037-1.434-0.435-2.66-1.415-3.68
			c-0.98-1.018-2.246-1.527-3.793-1.527c-0.941,0-1.772,0.15-2.49,0.452c-0.718,0.304-1.33,0.688-1.84,1.161
			s-0.906,1.02-1.188,1.641c-0.283,0.623-0.443,1.274-0.48,1.953H213.267z"/>
		<path d="M227.758,297.707c0-1.207,0.442-2.244,1.33-3.113c0.886-0.867,1.952-1.302,3.197-1.302c1.207,0,2.265,0.415,3.171,1.245
			c0.903,0.831,1.356,1.85,1.356,3.057c0,1.209-0.443,2.246-1.33,3.113c-0.888,0.869-1.953,1.303-3.197,1.303
			c-0.604,0-1.182-0.113-1.729-0.34s-1.028-0.527-1.441-0.904c-0.416-0.379-0.746-0.83-0.99-1.357
			C227.879,298.877,227.758,298.312,227.758,297.707z"/>
		<path d="M267.098,297.82c-1.283,1.549-2.736,2.688-4.355,3.425c-1.624,0.735-3.381,1.104-5.268,1.104
			c-2,0-3.849-0.342-5.547-1.021c-1.699-0.68-3.151-1.632-4.359-2.858c-1.207-1.226-2.148-2.679-2.83-4.358
			c-0.68-1.678-1.019-3.52-1.019-5.52s0.339-3.84,1.019-5.52c0.682-1.68,1.623-3.133,2.83-4.359c1.208-1.225,2.66-2.179,4.359-2.855
			c1.698-0.682,3.547-1.021,5.547-1.021c1.926,0,3.708,0.396,5.352,1.188c1.643,0.793,3.104,1.906,4.387,3.342l-2.717,2.035
			c-0.982-1.094-2.06-1.95-3.229-2.573c-1.17-0.622-2.434-0.937-3.793-0.937c-1.584,0-3.02,0.283-4.302,0.852
			c-1.283,0.564-2.378,1.33-3.283,2.293c-0.905,0.962-1.595,2.094-2.063,3.396c-0.475,1.303-0.709,2.688-0.709,4.159
			c0,1.474,0.234,2.858,0.709,4.16c0.471,1.304,1.158,2.437,2.063,3.396c0.905,0.963,2,1.728,3.283,2.293
			c1.282,0.565,2.718,0.851,4.302,0.851c1.436,0,2.746-0.33,3.937-0.992c1.188-0.657,2.217-1.536,3.085-2.631L267.098,297.82z"/>
		<path d="M272.418,258.875h3.396v21.229h0.112c0.68-1.435,1.812-2.67,3.396-3.709c1.586-1.037,3.434-1.557,5.548-1.557
			c2.038,0,3.696,0.322,4.979,0.963c1.283,0.643,2.293,1.48,3.029,2.52c0.732,1.037,1.244,2.236,1.526,3.596
			c0.282,1.357,0.427,2.756,0.427,4.188v15.566h-3.397v-15.396c0-1.057-0.095-2.084-0.283-3.086c-0.188-1-0.519-1.896-0.988-2.688
			c-0.475-0.792-1.133-1.425-1.981-1.896c-0.85-0.473-1.953-0.709-3.312-0.709c-1.245,0-2.427,0.22-3.538,0.651
			c-1.113,0.435-2.075,1.095-2.889,1.981c-0.812,0.887-1.451,2-1.925,3.34c-0.472,1.34-0.707,2.916-0.707,4.727v13.076h-3.396
			L272.418,258.875L272.418,258.875z"/>
	</g>
</g>
<radialGradient id="SVGID_1_" cx="90.0925" cy="2997.4922" r="77.2524" gradientTransform="matrix(1.3861 0 0 0.1667 35.1228 -244.3246)" gradientUnits="userSpaceOnUse">
	<stop  offset="0" style="stop-color:#808080"/>
	<stop  offset="1" style="stop-color:#808080;stop-opacity:0"/>
</radialGradient>
<path fill="url(#SVGID_1_)" d="M310,255.357c0,1.381-67.154,2.5-150,2.5c-82.842,0-150-1.119-150-2.5c0-1.379,67.158-2.5,150-2.5
	C242.846,252.857,310,253.979,310,255.357z"/>
</svg>
