<?xml version="1.0" encoding="UTF-8" standalone="no"?>
<!DOCTYPE svg PUBLIC "-//W3C//DTD SVG 1.1//EN" "http://www.w3.org/Graphics/SVG/1.1/DTD/svg11.dtd">
<svg width="100%" height="100%" viewBox="0 0 300 300" version="1.1" xmlns="http://www.w3.org/2000/svg" xmlns:xlink="http://www.w3.org/1999/xlink" xml:space="preserve" xmlns:serif="http://www.serif.com/" style="fill-rule:evenodd;clip-rule:evenodd;stroke-linejoin:round;stroke-miterlimit:2;">
    <g>
        <path d="M44.274,89.804C42.331,93.337 40.903,97.346 40.193,101.666C38.353,112.661 40.447,125.115 45.056,137.221C49.664,149.381 56.626,161.41 65.123,172.854C73.645,184.292 83.735,195.167 94.883,205.2C102.887,212.376 111.42,219.087 120.387,225.245C120.7,224.549 121.118,223.892 121.674,223.289C122.252,222.65 123.025,222.447 123.678,222.344C125.266,222.1 126.875,222.313 128.417,222.844C131.493,223.879 134.525,224.981 137.479,226.346C139.023,227.069 140.565,227.811 142.036,228.7C142.804,229.152 142.893,229.073 143.181,228.222C143.747,226.475 145.89,224.897 147.717,224.869C148.332,224.866 148.946,224.908 149.562,224.866C150.83,224.765 151.824,225.353 152.715,226.134C153.466,226.787 154.274,227.435 154.44,228.559C154.476,228.731 154.668,229.007 155.093,228.694C155.86,228.095 156.718,227.6 157.624,227.259C158.583,226.888 159.506,226.449 160.426,225.997C163.05,224.654 165.868,223.671 168.706,222.85C170.454,222.343 172.3,221.862 174.245,222.61C175.179,222.981 175.787,223.631 176.267,224.295C176.722,224.941 176.989,225.82 177.186,226.685C177.566,228.43 177.436,230.148 177.473,231.889C177.504,233.666 177.645,235.476 177.432,237.228C177.233,238.797 177.09,240.405 176.056,241.814C175.346,242.774 174.424,243.183 173.465,243.279C171.649,243.426 169.863,243.212 168.027,242.673C166.212,242.154 164.468,241.47 162.751,240.744C162.22,240.515 161.706,240.271 161.162,240.105C159.88,239.732 158.85,238.869 157.622,238.417C156.434,237.979 155.433,237.189 154.3,236.675C153.821,236.47 153.327,236.24 152.952,235.921C152.368,235.384 151.876,235.417 151.428,235.996C150.895,236.684 150.092,236.943 149.361,237.267C148.996,237.435 148.403,237.428 148.025,237.252C147.3,236.916 146.636,236.435 145.985,235.959C145.73,235.784 145.627,235.282 145.389,235.241C145.111,235.198 144.74,235.413 144.46,235.588C143.966,235.918 143.543,236.361 143.027,236.61C142.268,237.004 141.52,237.421 140.77,237.834C150.931,243.41 161.505,248.166 172.309,251.829C186.479,256.626 201.194,259.499 215.408,258.872C218.94,258.632 222.455,258.298 225.845,257.525C227.56,257.221 229.205,256.695 230.865,256.243C231.686,256.003 232.477,255.675 233.286,255.393C234.092,255.112 234.89,254.819 235.65,254.445C236.153,254.215 236.655,253.988 237.156,253.759C235.653,251.455 234.779,248.702 234.779,245.744C234.779,237.633 241.351,231.056 249.467,231.056C251.874,231.056 254.146,231.634 256.153,232.659C256.999,230.169 257.59,227.619 257.973,225.088C258.41,222.063 258.512,219.047 258.462,216.09C258.341,213.133 258.08,210.232 257.606,207.418C256.72,201.775 255.171,196.492 253.426,191.58C251.664,186.668 249.644,182.134 247.564,177.963C243.362,169.639 238.93,162.792 235.087,157.307C231.231,151.826 227.925,147.717 225.647,144.941C223.325,142.207 222.087,140.744 222.087,140.744C222.087,140.744 223.352,142.184 225.723,144.884C228.052,147.621 231.434,151.673 235.396,157.095C239.357,162.513 243.879,169.33 248.217,177.638C250.363,181.801 252.457,186.336 254.3,191.265C256.125,196.197 257.763,201.516 258.738,207.231C259.259,210.082 259.564,213.032 259.726,216.048C259.818,219.069 259.752,222.159 259.346,225.28C258.974,227.986 258.369,230.733 257.474,233.423C261.505,236.042 264.172,240.581 264.172,245.744C264.172,253.855 257.58,260.43 249.467,260.43C244.966,260.43 240.938,258.407 238.244,255.221C237.622,255.51 236.999,255.801 236.374,256.093C235.583,256.488 234.757,256.798 233.924,257.098C233.09,257.395 232.269,257.742 231.418,257.997C229.709,258.481 228.006,259.038 226.242,259.365C222.748,260.188 219.141,260.561 215.515,260.839C200.953,261.599 185.981,258.781 171.577,254.04C160.037,250.23 148.77,245.205 137.969,239.28C137.735,239.388 137.5,239.492 137.262,239.591C134.917,240.61 132.618,241.77 130.158,242.449C128.306,242.943 126.429,243.474 124.427,243.349C122.628,243.27 121.488,242.584 120.626,240.954C119.929,239.68 119.77,238.319 119.603,236.977C119.436,235.582 119.569,234.17 119.569,232.74C119.569,231.334 119.465,229.903 119.59,228.5C119.604,228.353 119.62,228.207 119.638,228.062C116.633,226.026 113.675,223.925 110.767,221.769C107.663,219.498 104.678,217.123 101.681,214.715C100.219,213.502 98.759,212.289 97.302,211.08C95.864,209.823 94.43,208.567 92.998,207.314C81.686,197.188 71.443,186.21 62.756,174.618C54.097,163.018 46.964,150.792 42.191,138.305C39.807,132.068 38.049,125.753 37.127,119.486C36.196,113.227 36.106,107.004 37.077,101.13C37.864,96.254 39.521,91.67 41.807,87.656C39.4,85.039 37.93,81.547 37.93,77.713C37.93,69.6 44.512,63.017 52.624,63.017C57.804,63.017 62.36,65.702 64.976,69.756C65.566,69.573 66.151,69.401 66.73,69.24C70.74,68.174 74.502,67.629 77.898,67.412C84.702,66.949 90.014,67.495 93.586,68.004C95.379,68.205 96.732,68.521 97.649,68.672C98.564,68.84 99.038,68.927 99.038,68.927C99.038,68.927 98.558,68.907 97.628,68.868C96.697,68.847 95.324,68.735 93.527,68.73C89.951,68.663 84.673,68.611 78.121,69.536C74.844,69.955 71.253,70.676 67.5,71.875C67.093,72 66.684,72.131 66.273,72.27C66.945,73.953 67.315,75.79 67.315,77.713C67.315,85.825 60.735,92.408 52.624,92.408C49.523,92.408 46.645,91.446 44.274,89.804Z" style="fill-opacity:0.33;"/>
        <path d="M195.955,202.253C184.782,214.114 168.929,221.519 151.349,221.519C117.523,221.519 90.096,194.101 90.096,160.266C90.096,158.043 90.225,155.852 90.454,153.696C74.426,150.092 62.962,140.695 62.342,127.467C61.54,110.326 92.689,109.173 98.643,110.326L98.66,110.329C100.188,84.336 99.927,47.731 92.517,27.89C106.512,24.07 140.919,23.784 151.189,23.784C161.46,23.784 196.212,24.071 210.189,27.89C202.955,47.278 202.685,82.674 204.193,108.534C208.888,106.957 213.557,106.044 218.223,106.044C232.944,106.044 234.746,116.135 234.743,122.56C234.743,133.512 223.696,142.717 210.53,144.417C211.888,149.473 212.609,154.784 212.612,160.266C212.612,173.799 208.223,186.306 200.791,196.442L200.791,226.164C200.791,227.499 199.708,228.582 198.373,228.582C197.038,228.582 195.955,227.499 195.955,226.164L195.955,202.253Z" style="fill-opacity:0.33;"/>
        <g transform="matrix(1,0,0,1,-10,18.359)">
            <path d="M310,255.357C310,256.738 242.846,257.857 160,257.857C77.158,257.857 10,256.738 10,255.357C10,253.978 77.158,252.857 160,252.857C242.846,252.857 310,253.979 310,255.357Z" style="fill:url(#_Radial1);fill-rule:nonzero;"/>
        </g>
    </g>
    <defs>
        <radialGradient id="_Radial1" cx="0" cy="0" r="1" gradientUnits="userSpaceOnUse" gradientTransform="matrix(107.08,0,0,12.878,160,255.357)"><stop offset="0" style="stop-color:rgb(128,128,128);stop-opacity:0.33"/><stop offset="1" style="stop-color:rgb(128,128,128);stop-opacity:0"/></radialGradient>
    </defs>
</svg>
