<?xml version="1.0" encoding="iso-8859-1"?>
<!-- Uploaded to: SVG Repo, www.svgrepo.com, Generator: SVG Repo Mixer Tools -->
<svg height="800px" width="800px" version="1.1" id="Layer_1" xmlns="http://www.w3.org/2000/svg" xmlns:xlink="http://www.w3.org/1999/xlink" 
	 viewBox="0 0 512 512" xml:space="preserve">
<path style="fill:#FFFFFF;" d="M409.29,132.831c7.796-7.957,12.608-18.848,12.608-30.866c0-24.365-19.752-44.117-44.117-44.117
	c-3.849,0-7.584,0.496-11.143,1.422c0.041-0.682,0.067-1.369,0.067-2.062c0-19.061-15.452-34.513-34.513-34.513
	c-10.319,0-19.574,4.535-25.899,11.713c-11.807-14.609-29.862-23.96-50.109-23.96c-20.291,0-38.378,9.392-50.184,24.055
	c-6.326-7.234-15.617-11.809-25.981-11.809c-19.061,0-34.513,15.452-34.513,34.513c0,0.693,0.026,1.379,0.067,2.062
	c-3.56-0.927-7.293-1.422-11.143-1.422c-24.365,0-44.117,19.752-44.117,44.117c0,12.019,4.813,22.909,12.608,30.866
	c-10.7,9.74-17.416,23.779-17.416,39.387c0,29.403,23.833,53.241,53.235,53.247c-0.118-0.951-0.185-1.918-0.185-2.902
	c0-12.926,10.479-23.406,23.406-23.406V168.71h0.368c0-51.835,42.022-93.857,93.857-93.857c51.836,0,93.857,42.022,93.857,93.857
	v30.447c12.926,0,23.406,10.479,23.406,23.406c0,0.981-0.068,1.947-0.185,2.896c0.066,0,0.132,0.005,0.197,0.005
	c29.408,0,53.247-23.839,53.247-53.247C426.706,156.609,419.989,142.57,409.29,132.831z"/>
<path style="fill:#FEBBA0;" d="M350.041,199.158v-30.446c0-51.835-42.022-93.857-93.857-93.857
	c-51.836,0-93.857,42.022-93.857,93.857h-0.368v30.446c-12.926,0-23.406,10.479-23.406,23.406s10.479,23.406,23.406,23.406v17.474
	c1.126,14.736,8.312,27.856,19.194,35.042l56.58,32.346c11.361,7.503,25.176,7.503,36.537,0l56.411-32.346
	c10.881-7.186,18.234-20.306,19.362-35.042v-17.474c12.926,0,23.406-10.479,23.406-23.406
	C373.447,209.637,362.967,199.158,350.041,199.158z"/>
<path d="M294.106,235.473c-6.441,0-11.68-5.239-11.68-11.679c0-6.441,5.239-11.68,11.68-11.68c6.441,0,11.68,5.239,11.68,11.68
	C305.786,230.234,300.547,235.473,294.106,235.473z"/>
<path d="M217.894,235.473c-6.441,0-11.68-5.239-11.68-11.679c0-6.441,5.239-11.68,11.68-11.68s11.68,5.239,11.68,11.68
	C229.572,230.234,224.333,235.473,217.894,235.473z"/>
<path d="M256.044,292.453c-11.391,0-20.66-9.268-20.66-20.66c0-5.771,4.678-10.449,10.449-10.449h20.422
	c5.771,0,10.449,4.678,10.449,10.449C276.703,283.186,267.435,292.453,256.044,292.453z"/>
<path style="fill:#FEBBA0;" d="M213.885,319.125v20.355c0,6.8-4.089,12.934-10.366,15.55l-67.248,28.02
	c-14.207,5.92-23.461,22.01-23.461,37.401v81.1h286.38v-81.1c0-15.39-9.255-31.482-23.461-37.401l-67.248-28.02
	c-6.278-2.615-10.366-8.75-10.366-15.55v-20.355H213.885z"/>
<path style="fill:#FFFFFF;" d="M375.73,383.05l-67.248-28.02c-1.989-0.829-3.757-2.014-5.246-3.459l-47.137,47.137l-47.237-47.237
	c-1.51,1.489-3.308,2.71-5.343,3.558l-67.248,28.02c-14.207,5.92-23.461,22.01-23.461,37.401v81.1h286.38v-81.1
	C399.191,405.06,389.935,388.968,375.73,383.05z"/>
<g>
	<polygon style="fill:#EAEAEA;" points="208.912,351.473 221.395,431.717 256.051,398.71 	"/>
	<polygon style="fill:#EAEAEA;" points="303.191,351.473 290.707,431.717 256.051,398.71 	"/>
</g>
<path style="fill:#FFFFFF;" d="M479.667,329.457v124.171c0,12.76-10.289,23.095-22.987,23.095c-12.698,0-22.99-10.335-22.989-23.095
	V329.457"/>
<path style="fill:#0C80D2;" d="M433.691,371.253v82.376c0,12.76,10.292,23.095,22.989,23.095c12.697,0,22.987-10.335,22.987-23.095
	v-82.376H433.691z"/>
<path style="fill:#FFFFFF;" d="M81.962,291.839v-56.214H40.915v56.217C23.007,299.736,10.5,317.634,10.5,338.462
	c0,28.133,22.806,50.94,50.94,50.94c28.133,0,50.94-22.806,50.94-50.94C112.38,317.632,99.871,299.734,81.962,291.839z"/>
<path style="fill:#CC6BC2;" d="M55.431,337.85c-29.016-6.563-44.225,7.113-44.475,7.339c3.295,24.951,24.632,44.213,50.483,44.213
	c28.133,0,50.94-22.807,50.94-50.94C97.23,348.479,84.688,344.468,55.431,337.85z"/>
<path style="opacity:0.5;fill:#027BD1;enable-background:new    ;" d="M303.087,188.468h-94.072
	c-20.191,0-36.556,16.366-36.556,36.556s16.365,36.556,36.556,36.556c20.19,0,36.556-16.366,36.556-36.556h20.96
	c0,20.19,16.366,36.556,36.556,36.556c20.191,0,36.556-16.366,36.556-36.556C339.643,204.834,323.278,188.468,303.087,188.468z"/>
<path d="M296.584,467.069h-0.137c-5.771,0-10.449-4.678-10.449-10.449c0-5.771,4.678-10.449,10.449-10.449h0.137
	c5.771,0,10.449,4.678,10.449,10.449C307.033,462.391,302.355,467.069,296.584,467.069z"/>
<path d="M369.59,467.069h-39.202c-5.771,0-10.449-4.678-10.449-10.449c0-5.771,4.678-10.449,10.449-10.449h39.202
	c5.771,0,10.449,4.678,10.449,10.449C380.039,462.391,375.361,467.069,369.59,467.069z"/>
<path d="M10.586,512h-0.137C4.678,512,0,507.322,0,501.551c0-5.771,4.678-10.449,10.449-10.449h0.137
	c5.771,0,10.449,4.678,10.449,10.449C21.035,507.322,16.357,512,10.586,512z"/>
<path d="M501.551,512h-0.137c-5.771,0-10.449-4.678-10.449-10.449c0-5.771,4.678-10.449,10.449-10.449h0.137
	c5.771,0,10.449,4.678,10.449,10.449C512,507.322,507.322,512,501.551,512z"/>
<path d="M297.465,132.702c-2.433,0-4.877-0.844-6.856-2.567c-9.602-8.356-21.893-12.958-34.609-12.958s-25.008,4.602-34.609,12.958
	c-4.353,3.788-10.954,3.331-14.741-1.023c-3.788-4.353-3.331-10.953,1.023-14.741c13.406-11.667,30.568-18.091,48.329-18.091
	c17.76,0,34.923,6.425,48.329,18.091c4.353,3.789,4.811,10.388,1.023,14.741C303.285,131.487,300.383,132.702,297.465,132.702z"/>
<path d="M283.736,161.329c-2.433,0-4.875-0.844-6.855-2.567c-5.794-5.042-13.21-7.818-20.881-7.818s-15.087,2.776-20.881,7.818
	c-4.353,3.789-10.954,3.331-14.741-1.023c-3.788-4.353-3.331-10.953,1.023-14.741c9.597-8.353,21.885-12.953,34.6-12.953
	c12.714,0,25.002,4.6,34.6,12.953c4.354,3.788,4.811,10.388,1.023,14.741C289.557,160.114,286.654,161.329,283.736,161.329z"/>
<path d="M495.333,319.008H418.01c-5.771,0-10.449,4.678-10.449,10.449c0,5.771,4.678,10.449,10.449,10.449h5.232v113.721
	c0,8.954,3.472,17.371,9.777,23.706c6.316,6.345,14.719,9.84,23.662,9.84c8.942,0,17.344-3.494,23.661-9.84
	c6.304-6.333,9.775-14.752,9.775-23.705V339.906h5.217c5.771,0,10.449-4.678,10.449-10.449
	C505.783,323.686,501.104,319.008,495.333,319.008z M469.218,453.63c0,3.389-1.309,6.571-3.689,8.961
	c-2.366,2.376-5.508,3.684-8.849,3.684s-6.486-1.308-8.851-3.685c-2.378-2.39-3.688-5.571-3.688-8.96V339.906h25.078V453.63z"/>
<path d="M456.672,236.877c-6.337,0-11.494-5.157-11.494-11.494s5.157-11.494,11.494-11.494s11.494,5.157,11.494,11.494
	S463.009,236.877,456.672,236.877z"/>
<path d="M486.976,277.498c-8.067,0-14.629-6.562-14.629-14.629c0-8.067,6.562-14.629,14.629-14.629s14.629,6.562,14.629,14.629
	C501.604,270.936,495.042,277.498,486.976,277.498z"/>
<path d="M442.67,308.623c-6.337,0-11.494-5.157-11.494-11.494s5.157-11.494,11.494-11.494s11.494,5.157,11.494,11.494
	S449.007,308.623,442.67,308.623z"/>
<path d="M55.431,203.604c-6.337,0-11.494-5.157-11.494-11.494c0-6.337,5.157-11.494,11.494-11.494s11.494,5.157,11.494,11.494
	C66.925,198.447,61.768,203.604,55.431,203.604z"/>
<path d="M22.778,165.442c-6.337,0-11.494-5.157-11.494-11.494s5.157-11.494,11.494-11.494s11.494,5.157,11.494,11.494
	S29.115,165.442,22.778,165.442z"/>
<path d="M54.386,133.733c-6.337,0-11.494-5.157-11.494-11.494s5.157-11.494,11.494-11.494s11.494,5.157,11.494,11.494
	S60.723,133.733,54.386,133.733z"/>
<path d="M73.899,20.68c-4.08-4.08-10.697-4.08-14.778,0l-3.692,3.692l-3.692-3.692c-4.08-4.08-10.697-4.08-14.778,0
	c-4.08,4.08-4.08,10.697,0,14.778l3.692,3.692l-3.692,3.692c-4.08,4.08-4.08,10.697,0,14.778c2.041,2.041,4.715,3.061,7.388,3.061
	s5.349-1.02,7.388-3.061l3.692-3.692l3.692,3.692c2.041,2.041,4.715,3.061,7.388,3.061c2.674,0,5.349-1.02,7.388-3.061
	c4.08-4.08,4.08-10.697,0-14.778l-3.692-3.692l3.692-3.692C77.98,31.376,77.98,24.76,73.899,20.68z"/>
<path d="M383.603,309.58c-3.835-3.835-9.909-4.064-14.013-0.691c-4.104-3.374-10.178-3.145-14.013,0.691
	c-3.835,3.835-4.064,9.908-0.691,14.013c-3.373,4.104-3.145,10.177,0.691,14.013c2.041,2.041,4.715,3.06,7.388,3.06
	c2.352,0,4.704-0.791,6.625-2.37c1.921,1.579,4.273,2.37,6.625,2.37c2.674,0,5.349-1.021,7.388-3.06
	c3.835-3.835,4.064-9.908,0.691-14.013C387.667,319.489,387.438,313.416,383.603,309.58z"/>
<path d="M92.411,285.461v-40.886c3.038-1.828,5.077-5.146,5.077-8.951c0-5.771-4.678-10.449-10.449-10.449H35.841
	c-5.771,0-10.449,4.678-10.449,10.449c0,3.802,2.038,7.121,5.074,8.949v40.889c-18.678,10.921-30.415,31.039-30.415,53
	c0,33.851,27.538,61.389,61.389,61.389s61.389-27.538,61.389-61.389C122.829,316.499,111.09,296.381,92.411,285.461z M61.44,378.953
	c-18.276,0-33.755-12.174-38.774-28.837c5.469-2.569,15.616-5.431,30.46-2.074c2.255,0.51,4.411,1.004,6.474,1.479
	c15.922,3.653,27.897,6.401,38.964,5.083C92.316,368.919,78.031,378.953,61.44,378.953z M64.273,329.151
	c-2.085-0.479-4.26-0.978-6.537-1.492c-14.779-3.344-26.605-2.173-35.38,0.328c3.134-11.668,11.378-21.56,22.776-26.586
	c3.789-1.671,6.234-5.421,6.234-9.561v-45.767h20.148v45.765c0,4.141,2.445,7.891,6.234,9.561
	c12.837,5.659,21.703,17.481,23.737,31.074C93.555,335.602,84.761,333.852,64.273,329.151z"/>
<path d="M467.61,491.102h-57.97v-70.651c0-20.367-12.292-39.713-29.891-47.047l-67.248-28.019c-2.391-0.996-3.936-3.313-3.936-5.905
	V323.21l27.313-15.661c0.19-0.109,0.377-0.225,0.561-0.346c13.676-9.031,22.657-25.093,24.022-42.965
	c0.021-0.264,0.03-0.531,0.03-0.796v-8.675c9.463-3.078,17.098-10.225,20.859-19.36c31.41-3.901,55.806-30.741,55.806-63.189
	c0-14.561-5.029-28.645-14.037-39.88c6.002-8.919,9.229-19.414,9.229-30.375c0-30.087-24.478-54.566-54.566-54.566
	c-0.566,0-1.133,0.008-1.699,0.026c-4.478-20.103-22.457-35.179-43.89-35.179c-9.037,0-17.779,2.729-25.141,7.697
	C293.293,7.162,275.263,0,256.184,0c-19.115,0-37.168,7.184-50.933,20.005c-7.38-5.008-16.152-7.758-25.233-7.758
	c-21.433,0-39.411,15.076-43.89,35.179c-0.566-0.018-1.132-0.026-1.699-0.026c-30.088,0-54.566,24.478-54.566,54.566
	c0,10.961,3.227,21.456,9.229,30.375c-9.008,11.234-14.037,25.319-14.037,39.88c0,32.37,24.282,59.162,55.585,63.161
	c3.757,9.148,11.398,16.308,20.87,19.389v8.675c0,0.265,0.01,0.532,0.03,0.796c1.372,17.945,10.289,34.006,23.854,42.965
	c0.187,0.123,0.378,0.24,0.573,0.352l27.469,15.704v16.221c0,2.59-1.545,4.908-3.936,5.905l-67.249,28.02
	c-17.599,7.334-29.89,26.679-29.89,47.045v70.65H44.39c-5.771,0-10.449,4.678-10.449,10.449c0,5.771,4.678,10.449,10.449,10.449
	H467.61c5.771,0,10.449-4.678,10.449-10.449C478.059,495.78,473.381,491.102,467.61,491.102z M339.592,195.457
	c-8.626-10.628-21.782-17.437-36.506-17.437h-94.071c-14.782,0-27.984,6.865-36.607,17.567v-24.118
	c0.239-0.878,0.368-1.802,0.368-2.756c0-45.991,37.417-83.408,83.408-83.408s83.408,37.417,83.408,83.408V195.457z M329.194,225.024
	c0,14.396-11.711,26.107-26.107,26.107c-14.396,0-26.107-11.711-26.107-26.107c0-5.771-4.678-10.449-10.449-10.449h-20.96
	c-5.771,0-10.449,4.678-10.449,10.449c0,14.396-11.711,26.107-26.107,26.107s-26.107-11.711-26.107-26.107
	s11.711-26.107,26.107-26.107h94.071C317.482,198.917,329.194,210.628,329.194,225.024z M350.041,235.519
	c-0.393,0-0.78,0.026-1.161,0.068c0.784-3.398,1.212-6.931,1.212-10.564c0-5.533-0.969-10.843-2.732-15.777
	c0.857,0.228,1.752,0.36,2.681,0.36c7.144,0,12.956,5.813,12.956,12.956C362.997,229.705,357.185,235.519,350.041,235.519z
	 M163.226,235.604c-0.416-0.05-0.837-0.085-1.266-0.085c-7.144,0-12.956-5.813-12.956-12.956c0-7.143,5.813-12.956,12.956-12.956
	c0.969,0,1.903-0.142,2.793-0.389c-1.77,4.942-2.742,10.262-2.742,15.806C162.01,228.662,162.44,232.2,163.226,235.604z
	 M151.918,165.814c-0.265,0.92-0.408,1.892-0.408,2.898v21.647c-10.875,3.537-19.338,12.447-22.275,23.577
	c-19.032-4.341-33.282-21.392-33.282-41.718c0-12.022,5.103-23.561,14.001-31.659c2.098-1.911,3.33-4.592,3.412-7.429
	s-0.996-5.584-2.982-7.611c-6.205-6.333-9.622-14.699-9.622-23.554c0-18.565,15.103-33.668,33.668-33.668
	c2.881,0,5.745,0.366,8.511,1.086c3.235,0.84,6.68,0.085,9.264-2.038c2.584-2.122,3.997-5.353,3.799-8.69
	c-0.028-0.479-0.048-0.96-0.048-1.446c0-13.269,10.796-24.064,24.064-24.064c6.934,0,13.537,3.003,18.116,8.239
	c2.033,2.325,5.005,3.629,8.078,3.568c3.088-0.064,5.989-1.489,7.927-3.894c10.314-12.811,25.639-20.159,42.045-20.159
	c16.368,0,31.67,7.318,41.982,20.079c1.935,2.394,4.827,3.813,7.905,3.879c3.07,0.077,6.027-1.23,8.062-3.539
	c4.576-5.194,11.157-8.172,18.059-8.172c13.269,0,24.064,10.795,24.064,24.064c0,0.486-0.021,0.968-0.048,1.446
	c-0.197,3.337,1.215,6.568,3.799,8.69c2.584,2.122,6.026,2.879,9.264,2.038c2.766-0.72,5.63-1.086,8.511-1.086
	c18.565,0,33.668,15.103,33.668,33.668c0,8.856-3.418,17.221-9.622,23.554c-1.985,2.027-3.063,4.774-2.981,7.611
	c0.082,2.837,1.312,5.518,3.412,7.429c8.898,8.098,14.001,19.638,14.001,31.659c0,20.397-14.347,37.498-33.477,41.765
	c-2.926-11.152-11.398-20.082-22.289-23.624v-21.647c0-57.514-46.792-104.306-104.306-104.306
	C199.638,64.405,153.457,109.634,151.918,165.814z M172.408,263.022v-8.56c8.624,10.702,21.826,17.567,36.607,17.567
	c22.329,0,41.071-15.648,45.834-36.556h2.402c4.764,20.907,23.506,36.556,45.834,36.556c14.723,0,27.88-6.809,36.506-17.437v8.428
	c-0.949,11.05-6.443,21.176-14.42,26.577l-56.101,32.167c-0.191,0.11-0.377,0.225-0.561,0.346c-7.832,5.173-17.185,5.174-25.02,0
	c-0.187-0.123-0.377-0.241-0.573-0.352l-56.264-32.165C178.669,284.187,173.369,274.3,172.408,263.022z M245.602,491.102H123.258
	v-70.651c0-11.777,7.322-23.71,17.031-27.756l60.536-25.223l10.244,65.851c0.598,3.842,3.28,7.035,6.962,8.287
	c1.1,0.374,2.236,0.556,3.361,0.556c2.641,0,5.234-1.002,7.208-2.883l17-16.192v68.01H245.602z M224.166,381.551L241.1,398.52
	l-12.45,11.858L224.166,381.551z M222.216,350.012c1.365-3.271,2.118-6.833,2.118-10.532v-4.275l7.939,4.538
	c7.334,4.764,15.531,7.145,23.728,7.145c8.199,0,16.398-2.383,23.733-7.149l7.933-4.548v4.288c0,3.726,0.765,7.312,2.148,10.603
	l-33.764,33.834L222.216,350.012z M287.936,381.551l-4.485,28.826l-12.45-11.857L287.936,381.551z M388.742,491.102H266.5v-68.01
	l17.001,16.192c1.975,1.88,4.566,2.883,7.208,2.883c1.126,0,2.261-0.182,3.361-0.556c3.681-1.252,6.363-4.444,6.962-8.287
	l10.238-65.811l60.441,25.183c9.709,4.046,17.031,15.978,17.031,27.756L388.742,491.102L388.742,491.102z"/>
</svg>